<svg xmlns="http://www.w3.org/2000/svg" width="363.768" height="139.855" viewBox="0 0 363.768 139.855"><path d="M214.617 66.399c3.793 0 5.694 2.896 5.694 5.792s-1.901 5.776-5.694 5.776h-4.153v-11.568h4.153zm0 9.898c2.683 0 4.039-2.053 4.039-4.105 0-2.052-1.356-4.121-4.039-4.121h-2.481v8.226h2.481zm13.023 0h5.378v1.671h-7.066v-11.569h7.052v1.672h-5.363v3.26h5.246v1.688h-5.246v3.278zm17.241-6.919c-.231-1.042-1.356-1.49-2.365-1.474-.78.017-1.639.282-2.103.877-.231.298-.315.679-.282 1.076.083 1.192 1.392 1.34 2.632 1.457 1.59.199 3.559.612 4.005 2.466.052.248.084.53.084.762 0 2.233-2.218 3.524-4.303 3.524-1.788 0-3.955-1.059-4.171-3.127l-.018-.314 1.688-.033.016.248v-.066c.117 1.076 1.426 1.639 2.499 1.639 1.242 0 2.6-.695 2.6-1.887 0-.115-.016-.248-.049-.396-.2-.878-1.393-1.027-2.551-1.143-1.803-.183-3.922-.58-4.104-2.996v.017c-.066-.778.135-1.556.631-2.201.776-1.01 2.169-1.54 3.508-1.54 1.787 0 3.643.926 3.938 3.045l-1.655.066zm12.907-1.324h-2.151v8.243h2.151v1.671h-5.975v-1.671h2.152v-8.243h-2.152v-1.655h5.975v1.655zm14.314 2.482c-.465-1.87-2.251-2.549-3.725-2.549-2.268 0-4.022 1.771-4.022 4.204 0 2.449 1.755 4.254 4.022 4.254 1.423 0 2.945-.662 3.641-2.351h-4.285v-1.671h6.239c-.085.977-.165 1.621-.315 2.002v-.015c-.795 2.217-3.177 3.641-5.279 3.641-3.243 0-5.693-2.449-5.693-5.859 0-3.426 2.499-5.875 5.693-5.875 2.219 0 4.898 1.142 5.51 4.22h-1.786zm7.591 7.432v-11.602l1.293.017 5.644 8.16v-8.16h1.653v11.585h-1.323l-5.593-8.094v8.094h-1.674zM149.373 85.871v-20.51h4.279v20.553c0 3.229 3.481 4.822 6.585 4.822 3.062 0 6.543-1.635 6.543-4.865v-20.51h4.279v20.553c0 5.955-5.789 9.06-10.822 9.06-5.159 0-10.864-3.105-10.864-9.103zm32.714-20.51l7.97 10.989 8.011-10.989h5.16l-10.612 14.723c3.146 4.319 7.802 10.695 10.612 14.596h-5.16l-8.011-10.989-7.97 10.989h-5.202l10.612-14.596c-3.145-4.32-7.927-10.99-10.612-14.723h5.202zM158.136 31.464c5.195-.058 7.854 3.938 7.899 7.965.045 4.025-2.526 8.045-7.72 8.104l-5.299.059.089 8.016-3.51.039-.267-24.084 8.808-.099zm.14 12.628c2.925-.033 4.344-2.32 4.319-4.59-.025-2.306-1.496-4.561-4.421-4.528l-5.298.059.101 9.119 5.299-.06zm12.956 7.839l11.182-.125.039 3.475-14.692.163-.267-24.05 14.656-.163.039 3.474-11.147.124.076 6.78 10.906-.122.038 3.509-10.906.122.076 6.813zm17.484-8.935l4.06-.045c2.925-.032 4.345-2.147 4.323-4.246-.024-2.064-1.491-4.148-4.418-4.116l-5.332.059.229 20.576-3.44.039-.268-24.085 8.773-.097c5.23-.058 7.886 3.766 7.931 7.585.036 3.407-2.027 6.665-6.147 7.432l7.703 8.965-4.506.05-8.892-10.465-.016-1.652zm17.297 8.549l11.183-.125.04 3.475-14.693.163-.267-24.05 14.658-.163.037 3.474-11.147.124.074 6.779 10.907-.121.04 3.509-10.907.122.075 6.813zm12.811-20.721l16.309-.181 1.196 2.189-13.418 18.904 13.42-.149.032 3.097-16.893.188-1.431-1.912 13.688-19.112-12.869.142-.034-3.166zm27.696-.342c5.194-.057 7.854 3.939 7.898 7.965.046 4.026-2.523 8.046-7.721 8.103l-5.298.06.091 8.016-3.512.039-.268-24.084 8.81-.099zm.141 12.628c2.925-.033 4.345-2.32 4.318-4.59-.024-2.306-1.495-4.562-4.42-4.529l-5.298.059.101 9.119 5.299-.059zm14.234-.916l4.061-.045c2.925-.033 4.345-2.147 4.323-4.246-.024-2.065-1.49-4.148-4.417-4.116l-5.332.06.229 20.576-3.442.038-.267-24.084 8.773-.098c5.229-.058 7.886 3.767 7.93 7.586.038 3.407-2.025 6.664-6.146 7.432l7.703 8.964-4.506.05-8.892-10.465-.017-1.652zm25.056-8.675l-4.473.051.19 17.135 4.475-.05.037 3.475-12.42.138-.04-3.475 4.475-.049-.19-17.135-4.473.049-.038-3.44 12.421-.138.036 3.439zm5.384 17.078l11.183-.125.039 3.476-14.692.163-.266-24.051 14.656-.162.038 3.475-11.146.124.074 6.779 10.907-.121.039 3.509-10.906.122.074 6.811zm31.831-12.329c-1.007-3.877-4.736-5.248-7.798-5.213-4.715.053-8.322 3.775-8.265 8.833.056 5.093 3.744 8.801 8.458 8.749 2.961-.033 6.109-1.445 7.517-4.968l-8.912.099-.038-3.476 12.971-.144c-.149 2.033-.306 3.376-.607 4.17l-.002-.034c-1.599 4.629-6.521 7.643-10.89 7.691-6.744.075-11.895-4.961-11.971-12.047-.08-7.123 5.058-12.273 11.699-12.346 4.609-.052 10.212 2.26 11.555 8.647l-3.717.039zm8.817-5.398c2.179-2.26 5.259-3.705 8.63-3.742 3.407-.038 6.483 1.338 8.748 3.549 2.19 2.213 3.635 5.26 3.673 8.666.04 3.406-1.339 6.484-3.481 8.745-2.212 2.295-5.259 3.706-8.664 3.743-3.373.038-6.485-1.304-8.711-3.55-2.191-2.212-3.639-5.258-3.676-8.666-.038-3.406 1.338-6.484 3.481-8.745zm14.926 2.312c-1.636-1.599-3.882-2.572-6.256-2.546-2.376.026-4.565 1.05-6.129 2.684-1.564 1.601-2.539 3.814-2.513 6.256.027 2.443 1.049 4.634 2.649 6.2 1.602 1.599 3.814 2.572 6.188 2.545 2.374-.026 4.6-1.048 6.198-2.683 1.531-1.601 2.505-3.78 2.476-6.258-.024-2.477-1.048-4.632-2.613-6.198zM212.116 93.408h5.284v1.642h-6.943v-11.364h6.926v1.642h-5.267v3.203h5.155v1.659h-5.155v3.218zm10.737 1.642v-11.397l1.269.016 5.543 8.015v-8.015h1.627v11.381h-1.302l-5.494-7.95v7.95h-1.643zm23.321-7.3c-.456-1.838-2.211-2.504-3.658-2.504-2.226 0-3.95 1.74-3.95 4.13 0 2.406 1.725 4.178 3.95 4.178 1.398 0 2.894-.649 3.576-2.308h-4.21v-1.643h6.128c-.079.959-.161 1.594-.308 1.967v-.016c-.78 2.178-3.121 3.576-5.187 3.576-3.187 0-5.593-2.406-5.593-5.755 0-3.366 2.455-5.771 5.593-5.771 2.179 0 4.812 1.122 5.415 4.146h-1.756zm12.643-2.438h-2.114v8.097h2.114v1.642h-5.872v-1.642h2.115v-8.097h-2.115v-1.626h5.872v1.626zm5.531 9.738v-11.397l1.269.016 5.545 8.015v-8.015h1.626v11.381h-1.303l-5.494-7.95v7.95h-1.643zm15.875-1.642h5.285v1.642h-6.943v-11.364h6.926v1.642h-5.268v3.203h5.156v1.659h-5.156v3.218zm12.331 0h5.284v1.642h-6.942v-11.364h6.925v1.642h-5.267v3.203h5.154v1.659h-5.154v3.218zm12.981-4.13h1.919c1.381 0 2.062-.991 2.062-1.983 0-.976-.682-1.968-2.062-1.968h-2.521v9.723h-1.626v-11.381h4.146c2.471 0 3.705 1.821 3.705 3.626 0 1.609-.99 3.138-2.941 3.479l3.593 4.276h-2.131l-4.145-4.991v-.781zM82.033 43.722h-15.854l-.013 25.84h-12.804c-4.283 0-7.89 1.561-10.429 4.512-2.235 2.598-3.465 6.082-3.465 9.811 0 7.119 4.773 14.324 13.895 14.324h15.854l.013-25.841h12.804c4.283 0 7.89-1.561 10.429-4.512 2.235-2.598 3.466-6.083 3.466-9.811-.001-7.117-4.775-14.323-13.896-14.323zm-15.866 51.438h-12.805c-7.494 0-10.906-5.86-10.906-11.306 0-5.444 3.413-11.304 10.906-11.304h12.804v22.61zm15.866-25.78h-12.804v-22.609h12.804c7.494 0 10.906 5.859 10.906 11.305 0 5.445-3.412 11.304-10.906 11.304zm-14.335-59.787c-33.668 0-61.058 27.39-61.058 61.057 0 33.668 27.39 61.058 61.058 61.058s61.057-27.39 61.057-61.058c0-33.667-27.39-61.057-61.057-61.057zm0 117.975c-31.385 0-56.918-25.533-56.918-56.918 0-31.384 25.533-56.917 56.918-56.917 31.384 0 56.917 25.533 56.917 56.917 0 31.385-25.533 56.918-56.917 56.918z" fill="#fff"/></svg>